<svg width="52" height="52" viewBox="0 0 52 52" fill="none" xmlns="http://www.w3.org/2000/svg">
<path d="M0 12.3C0 10.1629 0 9.09433 0.162714 8.20339C0.909968 4.11181 4.11181 0.909968 8.20339 0.162714C9.09433 0 10.1629 0 12.3 0H39.3488C41.4859 0 42.5545 0 43.4454 0.162714C47.537 0.909968 50.7388 4.11181 51.4861 8.20339C51.6488 9.09433 51.6488 10.1629 51.6488 12.3V39.0981C51.6488 41.2352 51.6488 42.3037 51.4861 43.1947C50.7388 47.2862 47.537 50.4881 43.4454 51.2353C42.5545 51.3981 41.4859 51.3981 39.3488 51.3981H12.3C10.1629 51.3981 9.09433 51.3981 8.20339 51.2353C4.11181 50.4881 0.909968 47.2862 0.162714 43.1947C0 42.3037 0 41.2352 0 39.0981V12.3Z" fill="black"/>
<path d="M17.8027 38.3229H8V36.6656C9.02916 36.6656 9.78816 36.5885 10.277 36.4343C10.7916 36.2801 11.1261 35.9076 11.2804 35.3166C11.4605 34.7256 11.5506 33.7748 11.5506 32.4644V18.2419C11.5506 17.2655 11.4605 16.5203 11.2804 16.0064C11.1261 15.4925 10.7916 15.1456 10.277 14.9657C9.78816 14.7601 9.05489 14.6574 8.07719 14.6574V13H18.9219L26.1775 30.8455H26.4862L33.7032 13H43.8147V14.6574C42.9399 14.6574 42.2581 14.7601 41.7692 14.9657C41.2804 15.1456 40.9459 15.4925 40.7658 16.0064C40.5857 16.5203 40.4957 17.2526 40.4957 18.2033V33.5436C40.4957 34.3915 40.5857 35.0468 40.7658 35.5093C40.9716 35.9461 41.319 36.2545 41.8078 36.4343C42.2967 36.5885 42.9785 36.6656 43.8533 36.6656V38.3229H31.3876V36.6656C32.3653 36.6656 33.0986 36.5885 33.5874 36.4343C34.0763 36.2545 34.3979 35.9461 34.5523 35.5093C34.7066 35.0468 34.7838 34.3915 34.7838 33.5436V18.2033H34.5523L26.1775 38.3229H23.1286L14.6381 18.2033H14.4065V32.4644C14.4065 33.7748 14.4837 34.7256 14.6381 35.3166C14.8182 35.9076 15.1526 36.2801 15.6415 36.4343C16.1303 36.5885 16.8508 36.6656 17.8027 36.6656V38.3229Z" fill="white"/>
</svg>
